<?xml version="1.0" encoding="UTF-8" standalone="no"?>
<svg
   xmlns:dc="http://purl.org/dc/elements/1.1/"
   xmlns:cc="http://creativecommons.org/ns#"
   xmlns:rdf="http://www.w3.org/1999/02/22-rdf-syntax-ns#"
   xmlns:svg="http://www.w3.org/2000/svg"
   xmlns="http://www.w3.org/2000/svg"
   xmlns:sodipodi="http://sodipodi.sourceforge.net/DTD/sodipodi-0.dtd"
   xmlns:inkscape="http://www.inkscape.org/namespaces/inkscape"
   sodipodi:docname="icone_animais.svg"
   inkscape:version="1.0 (4035a4fb49, 2020-05-01)"
   id="svg8"
   version="1.1"
   viewBox="0 0 5.988419 4.3257346"
   height="4.3257346mm"
   width="5.9884191mm">
  <defs
     id="defs2">
    <pattern
       id="EMFhbasepattern"
       patternUnits="userSpaceOnUse"
       width="6"
       height="6"
       x="0"
       y="0" />
    <pattern
       id="EMFhbasepattern-1"
       patternUnits="userSpaceOnUse"
       width="6"
       height="6"
       x="0"
       y="0" />
    <pattern
       id="EMFhbasepattern-18"
       patternUnits="userSpaceOnUse"
       width="6"
       height="6"
       x="0"
       y="0" />
    <pattern
       id="EMFhbasepattern-7"
       patternUnits="userSpaceOnUse"
       width="6"
       height="6"
       x="0"
       y="0" />
    <pattern
       id="EMFhbasepattern-2"
       patternUnits="userSpaceOnUse"
       width="6"
       height="6"
       x="0"
       y="0" />
    <pattern
       id="EMFhbasepattern-72"
       patternUnits="userSpaceOnUse"
       width="6"
       height="6"
       x="0"
       y="0" />
    <pattern
       id="EMFhbasepattern-9"
       patternUnits="userSpaceOnUse"
       width="6"
       height="6"
       x="0"
       y="0" />
  </defs>
  <sodipodi:namedview
     inkscape:window-maximized="0"
     inkscape:window-y="0"
     inkscape:window-x="0"
     inkscape:window-height="728"
     inkscape:window-width="1350"
     showgrid="false"
     inkscape:document-rotation="0"
     inkscape:current-layer="layer1"
     inkscape:document-units="mm"
     inkscape:cy="8.5720211"
     inkscape:cx="11.037979"
     inkscape:zoom="15.839192"
     inkscape:pageshadow="2"
     inkscape:pageopacity="0.0"
     borderopacity="1.0"
     bordercolor="#666666"
     pagecolor="#ffffff"
     id="base" />
  <metadata
     id="metadata5">
    <rdf:RDF>
      <cc:Work
         rdf:about="">
        <dc:format>image/svg+xml</dc:format>
        <dc:type
           rdf:resource="http://purl.org/dc/dcmitype/StillImage" />
        <dc:title></dc:title>
      </cc:Work>
    </rdf:RDF>
  </metadata>
  <g
     transform="translate(-107.45417,-130.24054)"
     id="layer1"
     inkscape:groupmode="layer"
     inkscape:label="Layer 1">
    <g
       id="g980">
      <path
         id="path947"
         d="m 108.19302,134.14122 h 0.21967 c 0.02,0.0802 0.0699,0.12033 0.0799,0.19052 h -0.24962 c -0.02,-0.0401 -0.0399,-0.13035 -0.0499,-0.19052 z m 3.46477,0 h 0.21967 l 0.0999,0.19052 h -0.24963 z m -2.53617,-0.81218 c -0.25961,0 -0.21967,-0.0301 -0.34947,-0.0401 0.0399,-0.14037 0.48926,-0.43115 0.7289,-0.43115 0.1298,0 0.22965,0.0702 0.27957,0.0802 -0.0399,0.16043 -0.38941,0.39105 -0.659,0.39105 z m 1.72739,-2.37638 h 0.26959 c 0,0.31084 0,0.55148 0.0999,0.83224 0.13979,0.42113 0.34948,0.23062 0.48926,0.35094 0.11982,0.11029 0.0699,0.34091 0.53919,0.23062 -0.0399,0.1504 -0.0799,0.4111 -0.18971,0.49132 0,-0.16043 0.0499,-0.371 -0.10984,-0.371 -0.0599,0 -0.0899,0.0401 -0.0899,0.10027 v 1.34361 h -0.22966 c 0,-0.0902 -0.0699,-0.82221 -0.0899,-0.87234 -0.0499,-0.12033 -0.22965,0.0602 -0.38941,-0.34092 -0.0999,-0.2607 -0.22965,-0.0501 -0.22965,-0.0301 0,0.0401 0.0499,0.18048 0.0699,0.21057 0.02,0.02 0.0399,0.0602 0.0499,0.0902 0.03,0.0301 0.0499,0.0501 0.0599,0.0902 -0.3295,0 -0.57912,0.0802 -0.9885,-0.16043 -0.23964,-0.15041 -0.2696,-0.27073 -0.66899,-0.27073 -0.20969,0 -0.45931,0.16043 -0.61907,0.28076 -0.0699,0.0501 -0.44932,0.4111 -0.44932,0.47126 v 0.53143 h -0.23964 c 0,-0.13035 -0.0499,-0.29078 -0.0499,-0.39105 0,-0.0301 0.0599,-0.14038 0.0699,-0.18049 0.03,-0.0702 0.0499,-0.12032 0.0799,-0.19051 0.20968,-0.50134 0.15976,-0.25067 0.01,-0.84226 -0.0699,-0.30081 -0.12981,-0.88237 0.0599,-1.1531 0.14978,-0.21056 0.36945,-0.23062 0.61907,-0.19051 0.15976,0.0201 -0.02,0.0802 0.10983,0.40108 0.0499,0.12032 0.17973,0.21056 0.28957,0.29078 0.01,0.01 0.0499,0.0401 0.0599,0.0401 0.0499,0.0602 0.0499,0.45121 0.37942,0.64172 0.43934,0.27073 1.22815,-0.2607 1.22815,-0.69186 0,-0.14037 -0.03,-0.22059 -0.1298,-0.32086 l -0.03,-0.0301 c -0.02,-0.02 -0.02,-0.02 -0.0399,-0.0401 -0.0499,-0.0501 -0.0899,-0.0702 -0.0599,-0.16043 0.01,-0.0401 0.0699,-0.16043 0.11982,-0.16043 z m -0.34947,0.21057 c 0,0.33089 0.44932,0.3008 0.20968,0.6718 -0.13979,0.21057 -0.43933,0.38102 -0.70893,0.38102 -0.26959,0 -0.35946,-0.34091 -0.38941,-0.55148 -0.0299,-0.16043 -0.41937,-0.21056 -0.41937,-0.53142 v -0.1103 c 0.30954,0.01 0.0599,0.0802 0.54917,0 0.0799,-0.01 0.16975,-0.0301 0.24963,-0.0401 0.25961,-0.0401 0.29955,-0.0301 0.56914,-0.0301 -0.02,0.0802 -0.0599,0.0902 -0.0599,0.21057 z m 1.83722,-0.70189 c 0,0.73197 0.30954,0.75202 0.30954,1.05283 -0.25961,0.0602 -0.33949,0.54145 -0.36944,0.57153 -0.02,0.0201 -0.0699,0.0602 -0.0899,0.0702 -0.29955,0.14038 -0.16974,-0.18048 -0.48926,-0.2607 -0.14977,-0.0401 -0.23964,0.0702 -0.31952,-0.34091 -0.0399,-0.21057 -0.0399,-0.34092 -0.0399,-0.56151 0,-0.0702 0.0799,-0.0301 0.14978,-0.0401 0.0899,-0.02 0.0499,-0.0501 0.1298,0.01 0.18971,0.13035 0.30953,0.10027 0.55916,0.10027 0.0599,0 0.0799,-0.0702 0.0799,-0.12033 0,-0.19051 -0.20969,-0.14037 -0.02,-0.39105 0.0299,-0.0401 0.0499,-0.0702 0.0998,-0.0902 z m 0.22966,0.16043 c 0.0699,0.0201 0.42935,0.46124 0.50923,0.54146 0.0899,0.10027 0.23964,0.24064 0.0699,0.34091 -0.0899,0.0602 -0.13979,-0.0301 -0.27957,-0.0301 -0.01,-0.21056 -0.22966,-0.46124 -0.25961,-0.60161 -0.03,-0.10027 -0.03,-0.23062 -0.0399,-0.25068 z m -0.94857,-0.0301 c 0.0399,0.01 0.22965,0.0401 0.24962,0.0501 0.03,0.02 0.0998,0.17045 0.10984,0.21056 -0.2696,0 -0.30954,-0.1504 -0.35946,-0.2607 z m 0.41937,-0.13035 c -0.0799,-0.0401 -0.5292,-0.12032 -0.61907,-0.12032 -0.0299,0 -0.0799,0.0401 -0.0799,0.1103 0,0.0602 0.0899,0.22059 0.0999,0.29078 -0.28956,0 -1.23813,-0.0201 -1.47777,0.0301 -0.49924,0.0802 -0.30953,0.10027 -0.82875,0.02 -0.30953,-0.0401 -0.56914,-0.10027 -0.83873,0.0802 -0.1298,0.10027 -0.02,0.0602 -0.20968,0.0802 -0.40939,0.0602 -0.62905,0.44119 -0.62905,0.85229 v 1.10296 c 0,0.13035 0.16974,0.13035 0.19969,0.0401 0.0499,-0.12032 -0.0599,-1.14307 0.0899,-1.49401 0.0399,-0.10027 0.17973,-0.25068 0.30953,-0.2607 -0.20968,0.38102 -0.0399,1.12301 0.0699,1.49401 0.0299,0.12032 0.0299,0.10027 -0.01,0.21057 l -0.25961,0.60161 c 0,0.0802 0.0799,0.48129 0.0999,0.60162 0.01,0.0802 0.0899,0.33088 0.12981,0.40107 0.02,0.0401 0.0599,0.0602 0.11982,0.0602 0.11981,0 0.46929,0.0201 0.53918,-0.0301 0.16975,-0.10027 -0.15976,-0.40107 -0.15976,-0.5615 v -0.51138 c 0.0699,0 0.11982,0.0301 0.18972,0.0401 0.0699,0.02 0.1298,0.0401 0.20968,0.0401 0,0.0602 -0.01,0.20054 0.0999,0.20054 0.1298,0 0.10983,-0.12033 0.10983,-0.20054 0.14978,0 0.32951,-0.10027 0.35946,-0.10027 0.0699,0 0.0499,0.0902 0.16974,0.0902 0.0699,0 0.0899,-0.0802 0.0899,-0.13035 0,-0.02 -0.0499,-0.0802 -0.0599,-0.10027 0.0799,-0.0501 0.15976,-0.14037 0.20968,-0.22059 0.0899,0.0602 0.24963,0.14038 0.36944,0.17046 0.17973,0.0501 0.30954,0.0702 0.48927,0.0702 0.11982,0 0.4593,-0.0401 0.5292,-0.0702 0,0.13035 0.0599,0.60161 0.0699,0.75202 0.02,0.18048 0.03,0.19051 0.0799,0.33089 0.0899,0.27072 0.01,0.23061 0.61907,0.23061 0.26959,0 0.0799,-0.27072 0.02,-0.39105 -0.0599,-0.13035 -0.0799,-0.11029 -0.0799,-0.3008 0.01,-0.25068 0,-0.51138 0,-0.76205 0.11982,-0.01 0.22965,-0.17046 0.27957,-0.27073 0.14978,-0.32086 0.12981,-1.15309 0.47928,-1.15309 0.0899,0 0.35946,0.16043 0.5292,-0.0602 0.10984,-0.16044 0.13979,-0.29079 0.02,-0.45122 -0.0299,-0.0301 -0.0399,-0.0401 -0.0599,-0.0702 l -0.24962,-0.29079 c -0.03,-0.0301 -0.0399,-0.0401 -0.0699,-0.0702 l -0.25961,-0.29078 c -0.13979,-0.14038 -0.17973,-0.21057 -0.38942,-0.21057 -0.1298,0 -0.2596,0.13035 -0.29954,0.22059 z"
         style="fill:#f5cf4f;stroke:none;stroke-width:0.264583;fill-opacity:1" />
    </g>
  </g>
</svg>
