<?xml version="1.0" encoding="UTF-8" standalone="no"?>
<svg
   xmlns:dc="http://purl.org/dc/elements/1.1/"
   xmlns:cc="http://creativecommons.org/ns#"
   xmlns:rdf="http://www.w3.org/1999/02/22-rdf-syntax-ns#"
   xmlns:svg="http://www.w3.org/2000/svg"
   xmlns="http://www.w3.org/2000/svg"
   xmlns:sodipodi="http://sodipodi.sourceforge.net/DTD/sodipodi-0.dtd"
   xmlns:inkscape="http://www.inkscape.org/namespaces/inkscape"
   sodipodi:docname="icone_pontodeexclamaçao.svg"
   inkscape:version="1.0 (4035a4fb49, 2020-05-01)"
   id="svg8"
   version="1.1"
   viewBox="0 0 6.33044 6.35707"
   height="6.35707mm"
   width="6.33044mm">
  <defs
     id="defs2">
    <pattern
       id="EMFhbasepattern"
       patternUnits="userSpaceOnUse"
       width="6"
       height="6"
       x="0"
       y="0" />
  </defs>
  <sodipodi:namedview
     inkscape:window-maximized="0"
     inkscape:window-y="0"
     inkscape:window-x="0"
     inkscape:window-height="728"
     inkscape:window-width="1366"
     showgrid="false"
     inkscape:document-rotation="0"
     inkscape:current-layer="g855"
     inkscape:document-units="mm"
     inkscape:cy="11.632587"
     inkscape:cx="13.328533"
     inkscape:zoom="11.2"
     inkscape:pageshadow="2"
     inkscape:pageopacity="0.0"
     borderopacity="1.0"
     bordercolor="#666666"
     pagecolor="#ffffff"
     id="base" />
  <metadata
     id="metadata5">
    <rdf:RDF>
      <cc:Work
         rdf:about="">
        <dc:format>image/svg+xml</dc:format>
        <dc:type
           rdf:resource="http://purl.org/dc/dcmitype/StillImage" />
        <dc:title></dc:title>
      </cc:Work>
    </rdf:RDF>
  </metadata>
  <g
     transform="translate(-87.54906,-135.16075)"
     id="layer1"
     inkscape:groupmode="layer"
     inkscape:label="Layer 1">
    <g
       transform="translate(-173.86905,-103.56548)"
       id="g855">
      <g
         id="g860">
        <path
           style="fill:#bbbdbf;fill-opacity:1;fill-rule:evenodd;stroke:none;stroke-width:0.264583"
           d="m 264.58333,238.72623 c 1.74737,0 3.16522,1.42382 3.16522,3.17853 0,1.75471 -1.41785,3.17854 -3.16522,3.17854 -1.74736,0 -3.16522,-1.42383 -3.16522,-3.17854 0,-1.75471 1.41786,-3.17853 3.16522,-3.17853 z m 0,0.42113 c 1.51771,0 2.74586,1.23331 2.74586,2.7574 0,1.52409 -1.22815,2.75741 -2.74586,2.75741 -1.51771,0 -2.74585,-1.23332 -2.74585,-2.75741 0,-1.52409 1.22814,-2.7574 2.74585,-2.7574 z"
           id="path836" />
        <path
           style="fill:#bbbdbf;fill-opacity:1;fill-rule:evenodd;stroke:none;stroke-width:0.264583"
           d="m 264.48348,240.40072 c 0.34948,0 0.41937,-0.02 0.37943,0.35095 -0.02,0.16043 -0.0299,0.36096 -0.0499,0.5214 -0.01,0.10026 -0.01,0.17045 -0.02,0.27072 l -0.0499,0.51138 c -0.0399,0.21056 -0.27957,0.18048 -0.3295,0.02 -0.01,-0.0401 -0.02,-0.21057 -0.02,-0.2607 l -0.0899,-1.0428 c -0.03,-0.21057 -0.0499,-0.371 0.17972,-0.371 z m 0.0599,2.11568 c 0.15976,0 0.25961,-0.02 0.37943,-0.14037 0.14978,-0.16043 0.11982,-0.32086 0.14978,-0.51138 0.01,-0.0602 0.02,-0.16043 0.02,-0.21056 l 0.0699,-0.83224 c 0.01,-0.14037 0.0399,-0.2607 0,-0.39105 -0.03,-0.12032 -0.0999,-0.20053 -0.18971,-0.2607 -0.16975,-0.11029 -0.60908,-0.11029 -0.77883,0 -0.26959,0.18049 -0.20968,0.41111 -0.18971,0.65175 0.02,0.31084 0.0699,0.99267 0.0999,1.24334 0.02,0.14038 0.0499,0.2206 0.13979,0.31084 0.0599,0.0501 0.18971,0.14037 0.29954,0.14037 z"
           id="path838" />
        <path
           style="fill:#bbbdbf;fill-opacity:1;fill-rule:evenodd;stroke:none;stroke-width:0.264583"
           d="m 264.56336,243.12805 h 0.03 c 0.16974,0 0.16974,0.28075 0,0.28075 h -0.03 c -0.16974,0 -0.16974,-0.28075 0,-0.28075 z m -0.02,0.59159 c 0.13979,0 0.22966,-0.01 0.33949,-0.1103 l 0.03,-0.0301 c 0.0699,-0.0702 0.11981,-0.18049 0.1298,-0.31084 0,-0.11029 -0.0599,-0.24064 -0.1298,-0.3008 -0.45931,-0.46124 -1.07838,0.21056 -0.63904,0.63169 0.0599,0.0602 0.16974,0.12032 0.26959,0.12033 z"
           id="path840" />
      </g>
    </g>
  </g>
</svg>
