<?xml version="1.0" encoding="UTF-8" standalone="no"?>
<svg
   xmlns:dc="http://purl.org/dc/elements/1.1/"
   xmlns:cc="http://creativecommons.org/ns#"
   xmlns:rdf="http://www.w3.org/1999/02/22-rdf-syntax-ns#"
   xmlns:svg="http://www.w3.org/2000/svg"
   xmlns="http://www.w3.org/2000/svg"
   xmlns:sodipodi="http://sodipodi.sourceforge.net/DTD/sodipodi-0.dtd"
   xmlns:inkscape="http://www.inkscape.org/namespaces/inkscape"
   sodipodi:docname="icone_logo.svg"
   inkscape:version="1.0 (4035a4fb49, 2020-05-01)"
   id="svg8"
   version="1.1"
   viewBox="0 0 6.8294878 5.6503544"
   height="5.6503544mm"
   width="6.8294878mm">
  <defs
     id="defs2">
    <pattern
       id="EMFhbasepattern"
       patternUnits="userSpaceOnUse"
       width="6"
       height="6"
       x="0"
       y="0" />
  </defs>
  <sodipodi:namedview
     inkscape:window-maximized="0"
     inkscape:window-y="0"
     inkscape:window-x="0"
     inkscape:window-height="728"
     inkscape:window-width="1366"
     showgrid="false"
     inkscape:document-rotation="0"
     inkscape:current-layer="layer1"
     inkscape:document-units="mm"
     inkscape:cy="11.43962"
     inkscape:cx="19.134"
     inkscape:zoom="7.9195959"
     inkscape:pageshadow="2"
     inkscape:pageopacity="0.0"
     borderopacity="1.0"
     bordercolor="#666666"
     pagecolor="#ffffff"
     id="base" />
  <metadata
     id="metadata5">
    <rdf:RDF>
      <cc:Work
         rdf:about="">
        <dc:format>image/svg+xml</dc:format>
        <dc:type
           rdf:resource="http://purl.org/dc/dcmitype/StillImage" />
        <dc:title></dc:title>
      </cc:Work>
    </rdf:RDF>
  </metadata>
  <g
     transform="translate(-106.19833,-129.46651)"
     id="layer1"
     inkscape:groupmode="layer"
     inkscape:label="Layer 1">
    <path
       style="fill:#ffffff;fill-opacity:1;fill-rule:evenodd;stroke:none;stroke-width:0.264583"
       d="m 107.47355,133.21781 c 0,0.72194 1.08836,0.80216 1.08836,0 0,-0.6718 -1.08836,-0.70188 -1.08836,0 z"
       id="path836" />
    <path
       style="fill:#ffffff;fill-opacity:1;fill-rule:evenodd;stroke:none;stroke-width:0.264583"
       d="m 111.60731,134.05005 c 0,-0.14038 0.15976,-0.33089 0.30954,-0.33089 0.1298,0 0.20968,-0.02 0.31951,0.1103 0.18972,0.22059 0.0399,0.61164 -0.28956,0.57153 -0.18971,-0.0301 -0.33949,-0.1504 -0.33949,-0.35094 z m -3.5047,0.25067 c -0.32951,0 -0.65901,-0.0602 -0.85871,-0.32086 -0.59909,-0.76205 -0.14977,-1.77477 0.80878,-1.77477 0.93858,0 1.40787,1.12302 0.76884,1.75472 -0.16974,0.16043 -0.3994,0.34091 -0.71891,0.34091 z m 2.27656,-2.90781 h -1.0584 c -0.0998,0 -0.01,-0.01 -0.0799,0.0301 0.13979,0.19052 0.22965,0 0.66899,0.742 0.0399,0.0501 0.0399,0.0702 0.10983,0.0902 0,-0.42113 0.56914,-0.31084 0.98851,-0.28076 0.37943,0.0301 0.90863,0 1.30802,0 -0.02,0.30081 -0.27957,0.25068 -0.39939,0.25068 -0.20969,0 -0.40939,0.0501 -0.60908,0.0602 -0.43934,0 -0.87868,-0.01 -1.30803,-0.01 0.01,0.17046 0.1997,0.43116 0.1997,0.91245 -0.56914,0 -0.14977,0.0602 -0.46929,-0.69186 -0.0899,-0.20053 -0.22966,-0.40107 -0.37943,-0.55148 -0.83873,-0.83223 -2.1867,-0.68183 -2.81575,0.2206 -0.38941,0.5615 -0.42935,1.15309 -0.17973,1.80484 0.57913,1.5241 2.63602,1.50404 3.32498,0.0902 0.0499,-0.10026 0.0699,-0.19051 0.11982,-0.29078 h 0.7988 c 0.0899,-0.17045 0.0599,-0.42113 0.47927,-0.74199 0.17973,-0.14038 0.54917,-0.34091 0.85871,-0.34091 v 0.33088 c -0.7988,0 -1.33798,1.08291 -0.70893,1.70458 0.3295,0.32086 0.37942,0.34092 0.78881,0.34092 0.26959,0 0.53918,-0.15041 0.68896,-0.29078 0.37942,-0.39105 0.42935,-0.86232 0.11981,-1.3035 -0.13978,-0.19052 -0.0499,-0.27073 -0.01,-0.68183 l 0.13979,-1.08291 c 0.01,-0.10027 0.0899,-0.31084 -0.03,-0.31084 h -2.1168 v -1.3436 h -0.42935 z"
       id="path838" />
    <path
       style="fill:#ffffff;fill-opacity:1;fill-rule:evenodd;stroke:none;stroke-width:0.264583"
       d="m 108.33226,130.43033 -0.0499,0.0301 h -0.0299 l -0.02,0.02 h -0.03 l -0.0499,0.0301 c 0,0 -0.01,0 -0.01,0.01 -0.01,0.0201 -0.14977,0.0802 -0.18971,0.24065 0,0 -0.2696,-0.27073 -0.27958,-0.28076 -0.11982,0 -0.0399,0 -0.0699,-0.02 -0.21967,-0.02 -0.68896,-0.21057 -0.36944,0.2607 0.0699,0.10027 0.13979,0.16043 0.22965,0.23062 0.0799,0.0702 0.16974,0.11029 0.28956,0.14038 l 0.21967,0.02 c 0.45931,0 0.8587,-0.58156 0.75886,-0.6718 -0.0799,-0.0802 -0.30954,-0.0201 -0.3994,-0.01 z"
       id="path840" />
    <path
       style="fill:#ffffff;fill-opacity:1;fill-rule:evenodd;stroke:none;stroke-width:0.264583"
       d="m 107.60336,130.46041 c 0.11982,0 0.0499,0 0.0699,0.02 0.10984,0.0301 0.10984,0.0501 0.23964,0.0501 h 0.0599 c 0.02,0 0.02,0 0.0499,-0.01 0.0399,0 0.0699,-0.01 0.1298,-0.01 l 0.0499,-0.0301 h 0.03 l 0.02,-0.02 h 0.0299 l 0.0499,-0.0301 c 0.0299,-0.0401 0.48926,-0.40108 0.34947,-0.53143 -0.0599,-0.0602 -0.61906,-0.01 -0.69894,0.28076 -0.12981,-0.0401 -0.0499,-0.12033 -0.31952,-0.24065 -0.0799,-0.0301 -0.12981,-0.0401 -0.22965,-0.0501 -0.12981,-0.02 -0.13979,-0.01 -0.23964,0.0401 0.01,0.30081 0.34947,0.44119 0.40938,0.53143 z"
       id="path842" />
    <path
       style="fill:#ffffff;fill-opacity:1;fill-rule:evenodd;stroke:none;stroke-width:0.264583"
       d="m 107.40366,129.56801 c 0,0.0702 0.1298,0.23062 0.18971,0.27073 0.5991,0.46124 1.10833,-0.371 0.83874,-0.371 -0.14978,0 -0.40938,0.0401 -0.44932,0.20054 h -0.0499 c -0.0499,-0.17046 -0.5292,-0.30081 -0.5292,-0.10027 z"
       id="path844" />
  </g>
</svg>
