<?xml version="1.0" encoding="UTF-8" standalone="no"?>
<svg
   xmlns:dc="http://purl.org/dc/elements/1.1/"
   xmlns:cc="http://creativecommons.org/ns#"
   xmlns:rdf="http://www.w3.org/1999/02/22-rdf-syntax-ns#"
   xmlns:svg="http://www.w3.org/2000/svg"
   xmlns="http://www.w3.org/2000/svg"
   xmlns:sodipodi="http://sodipodi.sourceforge.net/DTD/sodipodi-0.dtd"
   xmlns:inkscape="http://www.inkscape.org/namespaces/inkscape"
   sodipodi:docname="icone_lupa.svg"
   inkscape:version="1.0 (4035a4fb49, 2020-05-01)"
   id="svg8"
   version="1.1"
   viewBox="0 0 6.8294878 5.6503544"
   height="5.6503544mm"
   width="6.8294878mm">
  <defs
     id="defs2">
    <pattern
       id="EMFhbasepattern"
       patternUnits="userSpaceOnUse"
       width="6"
       height="6"
       x="0"
       y="0" />
    <pattern
       id="EMFhbasepattern-1"
       patternUnits="userSpaceOnUse"
       width="6"
       height="6"
       x="0"
       y="0" />
    <pattern
       id="EMFhbasepattern-18"
       patternUnits="userSpaceOnUse"
       width="6"
       height="6"
       x="0"
       y="0" />
  </defs>
  <sodipodi:namedview
     inkscape:window-maximized="0"
     inkscape:window-y="0"
     inkscape:window-x="0"
     inkscape:window-height="728"
     inkscape:window-width="1350"
     showgrid="false"
     inkscape:document-rotation="0"
     inkscape:current-layer="layer1"
     inkscape:document-units="mm"
     inkscape:cy="11.43962"
     inkscape:cx="19.134"
     inkscape:zoom="7.9195959"
     inkscape:pageshadow="2"
     inkscape:pageopacity="0.0"
     borderopacity="1.0"
     bordercolor="#666666"
     pagecolor="#ffffff"
     id="base" />
  <metadata
     id="metadata5">
    <rdf:RDF>
      <cc:Work
         rdf:about="">
        <dc:format>image/svg+xml</dc:format>
        <dc:type
           rdf:resource="http://purl.org/dc/dcmitype/StillImage" />
        <dc:title></dc:title>
      </cc:Work>
    </rdf:RDF>
  </metadata>
  <g
     transform="translate(-106.19833,-129.46651)"
     id="layer1"
     inkscape:groupmode="layer"
     inkscape:label="Layer 1">
    <path
       style="fill:#bbbdbf;fill-opacity:1;fill-rule:evenodd;stroke:none;stroke-width:0.264583"
       d="m 109.16324,130.44463 c -0.27958,0 -0.57913,0.0802 -0.77883,0.20054 -0.13979,0.0902 -0.26959,0.17046 -0.37943,0.30081 -0.0999,0.1103 -0.13979,0.16043 -0.20968,0.29078 -0.23964,0.39105 -0.27958,0.96259 -0.0899,1.39374 0.0699,0.16044 0.16974,0.33089 0.28956,0.45122 0.0499,0.0602 0.0599,0.0802 0.14977,0.1504 0.03,0.0201 0.0499,0.0401 0.0799,0.0602 0.03,0.02 0.0599,0.0401 0.0899,0.0602 0.21966,0.14038 0.37942,0.20054 0.64902,0.23062 0.54917,0.0802 1.12829,-0.18048 1.43783,-0.60161 0.13978,-0.19051 0.21966,-0.34092 0.27957,-0.59159 0.0799,-0.29078 0.0599,-0.62167 -0.0399,-0.8924 -0.02,-0.0401 -0.0299,-0.0802 -0.0499,-0.12032 -0.0699,-0.15041 -0.11982,-0.23062 -0.21967,-0.36097 l -0.14977,-0.1504 c -0.03,-0.0201 -0.0399,-0.0501 -0.0699,-0.0702 l -0.31951,-0.20054 c -0.02,-0.01 -0.0399,-0.0201 -0.0499,-0.0201 -0.14977,-0.0802 -0.42935,-0.13035 -0.61906,-0.13035 z m 0.0499,-0.21056 h -0.11982 c -0.23964,0.01 -0.48926,0.0702 -0.69894,0.17046 -0.28957,0.1504 -0.44933,0.27072 -0.64902,0.53142 -0.02,0.0201 -0.03,0.0301 -0.0399,0.0501 -0.20969,0.27073 -0.31952,0.64172 -0.32951,1.00269 v 0.0902 c 0.01,0.20054 0.0399,0.39105 0.10984,0.56151 0.01,0.0301 0.02,0.0501 0.0299,0.0802 l 0.10984,0.22059 c 0.0899,0.14038 0.16974,0.24065 0.28956,0.36097 0.11982,0.12032 0.22965,0.19051 0.37943,0.28075 0.0399,0.0301 0.0899,0.0501 0.13979,0.0702 0.0399,0.0301 0.10983,0.0501 0.15975,0.0602 0.55916,0.19051 1.11832,0.0902 1.56764,-0.21056 l 1.03843,1.05282 c 0.10983,0.0802 0.14977,0.0902 0.26959,0.0902 0.11982,0 0.27958,-0.12033 0.29955,-0.29078 v -0.0702 c -0.01,-0.0702 -0.0399,-0.14038 -0.0999,-0.21057 l -1.03843,-1.0428 c 0.16974,-0.2607 0.30953,-0.60161 0.30953,-1.02275 0,-0.20053 -0.0399,-0.39105 -0.0999,-0.5615 -0.02,-0.0602 -0.0399,-0.1103 -0.0599,-0.16043 -0.0299,-0.0501 -0.0499,-0.10027 -0.0799,-0.15041 -0.11982,-0.19051 -0.15976,-0.25067 -0.3295,-0.42113 -0.0799,-0.0802 -0.20968,-0.17046 -0.30953,-0.23062 -0.0999,-0.0602 -0.1997,-0.11029 -0.29955,-0.14037 -0.16974,-0.0702 -0.35946,-0.10027 -0.54917,-0.1103 z"
       id="path877" />
    <path
       style="fill:#bbbdbf;fill-opacity:1;fill-rule:evenodd;stroke:none;stroke-width:0.264583"
       d="m 110.46128,131.94867 v 0.10027 c 0,0.0702 -0.14978,0.13035 -0.18972,0 -0.01,-0.0301 -0.01,-0.12032 -0.02,-0.16043 -0.02,-0.12032 -0.0299,-0.16043 -0.0699,-0.27073 -0.03,-0.0902 -0.11982,-0.24064 -0.17973,-0.31083 -0.0799,-0.0802 -0.0699,-0.0902 -0.16974,-0.16043 -0.17973,-0.14038 -0.37943,-0.22059 -0.61907,-0.23062 -0.0599,0 -0.0999,-0.01 -0.1298,-0.0401 -0.0599,-0.0602 -0.03,-0.18048 0.0998,-0.18048 0.0399,0 0.03,0.01 0.0699,0.01 0.0399,0.01 0.0599,0.01 0.0799,0.01 0.1997,0.0301 0.3295,0.0802 0.49925,0.17046 0.0699,0.0501 0.21966,0.16043 0.27957,0.23062 0.1997,0.23062 0.34948,0.51137 0.34948,0.83223 z"
       id="path879" />
  </g>
</svg>
