<?xml version="1.0" encoding="UTF-8" standalone="no"?>
<svg
   xmlns:dc="http://purl.org/dc/elements/1.1/"
   xmlns:cc="http://creativecommons.org/ns#"
   xmlns:rdf="http://www.w3.org/1999/02/22-rdf-syntax-ns#"
   xmlns:svg="http://www.w3.org/2000/svg"
   xmlns="http://www.w3.org/2000/svg"
   xmlns:sodipodi="http://sodipodi.sourceforge.net/DTD/sodipodi-0.dtd"
   xmlns:inkscape="http://www.inkscape.org/namespaces/inkscape"
   sodipodi:docname="icone_drawerconfg.svg"
   inkscape:version="1.0 (4035a4fb49, 2020-05-01)"
   id="svg8"
   version="1.1"
   viewBox="0 0 6.8294878 5.6503544"
   height="5.6503544mm"
   width="6.8294878mm">
  <defs
     id="defs2">
    <pattern
       id="EMFhbasepattern"
       patternUnits="userSpaceOnUse"
       width="6"
       height="6"
       x="0"
       y="0" />
    <pattern
       id="EMFhbasepattern-1"
       patternUnits="userSpaceOnUse"
       width="6"
       height="6"
       x="0"
       y="0" />
  </defs>
  <sodipodi:namedview
     inkscape:window-maximized="0"
     inkscape:window-y="0"
     inkscape:window-x="0"
     inkscape:window-height="728"
     inkscape:window-width="1350"
     showgrid="false"
     inkscape:document-rotation="0"
     inkscape:current-layer="layer1"
     inkscape:document-units="mm"
     inkscape:cy="11.43962"
     inkscape:cx="19.134"
     inkscape:zoom="7.9195959"
     inkscape:pageshadow="2"
     inkscape:pageopacity="0.0"
     borderopacity="1.0"
     bordercolor="#666666"
     pagecolor="#ffffff"
     id="base" />
  <metadata
     id="metadata5">
    <rdf:RDF>
      <cc:Work
         rdf:about="">
        <dc:format>image/svg+xml</dc:format>
        <dc:type
           rdf:resource="http://purl.org/dc/dcmitype/StillImage" />
        <dc:title></dc:title>
      </cc:Work>
    </rdf:RDF>
  </metadata>
  <g
     transform="translate(-106.19833,-129.46651)"
     id="layer1"
     inkscape:groupmode="layer"
     inkscape:label="Layer 1">
    <path
       style="fill:#ffffff;fill-opacity:1;fill-rule:evenodd;stroke:none;stroke-width:0.264583"
       d="m 107.91889,130.95592 c 0,-0.10027 0.10984,-0.18048 0.15976,-0.24064 0.0599,-0.0501 0.14978,-0.17046 0.23964,-0.17046 0.18971,0 0.20968,0.2607 0.41937,0.2607 0.02,0 0.21966,-0.1103 0.26959,-0.13035 0.0899,-0.0401 0.25961,-0.0902 0.28956,-0.10027 0.15976,-0.0902 0.01,-0.36097 0.11982,-0.47126 0.0899,-0.0902 0.25961,-0.0602 0.43934,-0.0602 0.1298,0 0.18971,0.0902 0.18971,0.21057 0,0.44118 0.01,0.24065 0.49925,0.48129 0.0599,0.0401 0.0799,0.0702 0.15976,0.0702 0.15976,0 0.21967,-0.2607 0.37942,-0.2607 0.0999,0 0.17973,0.1103 0.23964,0.16043 0.0499,0.0602 0.16975,0.1504 0.16975,0.24065 0,0.19051 -0.25961,0.21056 -0.25961,0.42113 0,0.02 0.10983,0.22059 0.1298,0.27072 0.0399,0.0903 0.0899,0.2607 0.10984,0.29079 0.10983,0.19051 0.51921,-0.0802 0.51921,0.28075 0,0.23062 0.0499,0.46124 -0.18971,0.47127 -0.14978,0 -0.26959,-0.0301 -0.3295,0.0702 -0.01,0.01 -0.0999,0.28076 -0.16975,0.43116 -0.0399,0.0602 -0.0699,0.0802 -0.0699,0.16043 0,0.16043 0.25961,0.22059 0.25961,0.38103 0,0.10026 -0.10984,0.18048 -0.15976,0.24064 -0.0599,0.0501 -0.14978,0.17046 -0.23964,0.17046 -0.18971,0 -0.20968,-0.2607 -0.41937,-0.2607 -0.02,0 -0.21967,0.1103 -0.26959,0.13035 -0.0499,0.02 -0.0899,0.0401 -0.13979,0.0501 -0.24962,0.0802 -0.21967,0.0702 -0.21967,0.38103 -0.01,0.25067 -0.22965,0.20054 -0.46929,0.20054 -0.1298,0 -0.1997,-0.0602 -0.20968,-0.19052 0,-0.31083 0.0499,-0.3008 -0.20969,-0.38102 l -0.28956,-0.12032 c -0.0599,-0.0401 -0.0799,-0.0702 -0.14977,-0.0702 -0.16975,0 -0.22966,0.2607 -0.38942,0.2607 -0.0998,0 -0.17972,-0.1103 -0.23963,-0.16043 -0.0499,-0.0602 -0.16975,-0.15041 -0.16975,-0.24065 0,-0.19051 0.25961,-0.21056 0.25961,-0.42113 0,-0.02 -0.10983,-0.22059 -0.1298,-0.27073 -0.0399,-0.10026 -0.0799,-0.25067 -0.0999,-0.29078 -0.0599,-0.10027 -0.16975,-0.0702 -0.31952,-0.0702 -0.26959,0 -0.20968,-0.2206 -0.20968,-0.49132 0,-0.0602 0.02,-0.1103 0.0499,-0.14038 0.11982,-0.12032 0.38941,0.0401 0.47928,-0.12032 0.01,-0.0301 0.0599,-0.20054 0.0999,-0.29079 0.02,-0.0501 0.0399,-0.0902 0.0599,-0.14037 0.0399,-0.0602 0.0699,-0.0802 0.0699,-0.15041 0,-0.17045 -0.25961,-0.23062 -0.25961,-0.39105 z m 1.58761,-1.22328 h 0.39939 c 0.12981,0.01 0.22966,0.0602 0.33949,0.18048 0.0399,0.0501 0.0699,0.12033 0.0899,0.18049 0.01,0.0602 0.02,0.1504 0.02,0.23062 0.0699,0.02 0.24963,0.10027 0.30954,0.13035 0.0799,-0.0501 0.17973,-0.21057 0.37942,-0.21057 0.2696,0 0.30954,0.0602 0.49925,0.25068 0.0999,0.10026 0.24962,0.23061 0.24962,0.4111 0,0.13035 0.01,0.19051 -0.0699,0.31083 -0.0499,0.0702 -0.0998,0.10027 -0.13979,0.16043 0.0299,0.0602 0.10983,0.24065 0.1298,0.31084 0.0699,0 0.18972,0.01 0.23964,0.0201 0.18972,0.0702 0.34947,0.23062 0.34947,0.43116 v 0.39105 c -0.01,0.14038 -0.0599,0.25067 -0.17972,0.35094 -0.10984,0.0802 -0.21967,0.1103 -0.40939,0.1103 -0.02,0.0702 -0.0998,0.25067 -0.1298,0.31083 0.0499,0.0802 0.20968,0.18049 0.20968,0.38103 0,0.27072 -0.0599,0.31083 -0.24962,0.50134 -0.0999,0.10027 -0.22965,0.25068 -0.40938,0.25068 -0.33949,0 -0.30953,-0.1103 -0.46929,-0.21057 -0.0599,0.0301 -0.23964,0.1103 -0.30954,0.13035 0,0.19051 -0.0299,0.30081 -0.10983,0.41111 -0.0599,0.0802 -0.1997,0.18048 -0.33949,0.18048 h -0.38941 c -0.13979,-0.01 -0.24962,-0.0602 -0.34947,-0.18048 -0.0899,-0.1103 -0.10984,-0.2206 -0.10984,-0.41111 -0.02,-0.01 -0.0599,-0.02 -0.0799,-0.0301 l -0.22965,-0.10027 c -0.0799,0.0501 -0.17973,0.21057 -0.37943,0.21057 -0.26959,0 -0.30953,-0.0602 -0.49924,-0.25068 -0.0998,-0.10027 -0.24963,-0.23062 -0.24963,-0.4111 0,-0.13035 0,-0.19051 0.0699,-0.31083 0.0499,-0.0702 0.0999,-0.10027 0.13979,-0.16044 -0.03,-0.0501 -0.0499,-0.0902 -0.0699,-0.1504 -0.02,-0.0401 -0.0499,-0.12032 -0.0599,-0.16043 -0.18971,0 -0.29954,-0.0301 -0.40938,-0.1103 -0.0799,-0.0602 -0.17973,-0.20053 -0.17973,-0.34091 v -0.40108 c 0.01,-0.13035 0.0599,-0.23062 0.17973,-0.34091 0.10984,-0.10027 0.25961,-0.1103 0.40938,-0.1103 0.02,-0.0702 0.0999,-0.25067 0.12981,-0.31084 -0.0399,-0.0602 -0.0899,-0.0902 -0.13979,-0.16043 -0.03,-0.0602 -0.0699,-0.13035 -0.0699,-0.22059 0,-0.27073 0.0599,-0.31083 0.24963,-0.50134 0.0999,-0.10027 0.22965,-0.25068 0.40938,-0.25068 0.33949,0 0.30953,0.1103 0.46929,0.21057 0.0499,-0.0201 0.0899,-0.0501 0.14978,-0.0702 0.02,-0.01 0.0499,-0.02 0.0799,-0.0301 0.02,-0.01 0.0599,-0.0201 0.0799,-0.0301 0,-0.0702 0.01,-0.18049 0.02,-0.24065 0.03,-0.0702 0.0499,-0.12032 0.0899,-0.17046 0.0699,-0.0802 0.18971,-0.18048 0.33949,-0.18048 z"
       id="path861" />
    <path
       style="fill:#ffffff;fill-opacity:1;fill-rule:evenodd;stroke:none;stroke-width:0.264583"
       d="m 108.88743,132.36972 c 0,-0.27073 0.0799,-0.45121 0.23964,-0.61164 0.53918,-0.54146 1.39789,-0.1103 1.39789,0.55148 0,0.27073 -0.0799,0.45121 -0.23964,0.61164 -0.53919,0.54146 -1.39789,0.1103 -1.39789,-0.55148 z m -0.31952,-0.0301 c 0,0.0802 0.02,0.19051 0.0399,0.25067 0.0399,0.16043 0.0799,0.2607 0.16975,0.40108 0.0499,0.0602 0.0699,0.0902 0.1298,0.1504 0.15976,0.16043 0.3295,0.25068 0.54917,0.31084 0.16974,0.0401 0.3295,0.0301 0.49925,0 0.20968,-0.0501 0.39939,-0.16043 0.54917,-0.31084 0.0599,-0.0602 0.0799,-0.0902 0.1298,-0.1504 0.0399,-0.0702 0.0699,-0.1103 0.0999,-0.19051 0.0399,-0.0802 0.0499,-0.12032 0.0799,-0.21057 0.10984,-0.44118 -0.0999,-0.94253 -0.45931,-1.18317 -0.0599,-0.0401 -0.11981,-0.0802 -0.17972,-0.10027 -0.33949,-0.14038 -0.5991,-0.14038 -0.9286,0 -0.3994,0.17045 -0.67898,0.59158 -0.67898,1.03277 z"
       id="path863" />
  </g>
</svg>
