<?xml version="1.0" encoding="UTF-8" standalone="no"?>
<svg
   xmlns:dc="http://purl.org/dc/elements/1.1/"
   xmlns:cc="http://creativecommons.org/ns#"
   xmlns:rdf="http://www.w3.org/1999/02/22-rdf-syntax-ns#"
   xmlns:svg="http://www.w3.org/2000/svg"
   xmlns="http://www.w3.org/2000/svg"
   xmlns:sodipodi="http://sodipodi.sourceforge.net/DTD/sodipodi-0.dtd"
   xmlns:inkscape="http://www.inkscape.org/namespaces/inkscape"
   sodipodi:docname="icone_sinaldeadicionar.svg"
   inkscape:version="1.0 (4035a4fb49, 2020-05-01)"
   id="svg8"
   version="1.1"
   viewBox="0 0 7.0844502 7.1141639"
   height="7.1141639mm"
   width="7.0844502mm">
  <defs
     id="defs2">
    <pattern
       id="EMFhbasepattern"
       patternUnits="userSpaceOnUse"
       width="6"
       height="6"
       x="0"
       y="0" />
    <pattern
       id="EMFhbasepattern-0"
       patternUnits="userSpaceOnUse"
       width="6"
       height="6"
       x="0"
       y="0" />
  </defs>
  <sodipodi:namedview
     showguides="false"
     inkscape:window-maximized="0"
     inkscape:window-y="0"
     inkscape:window-x="0"
     inkscape:window-height="728"
     inkscape:window-width="1366"
     showgrid="false"
     inkscape:document-rotation="0"
     inkscape:current-layer="g855"
     inkscape:document-units="mm"
     inkscape:cy="13.469532"
     inkscape:cx="13.323619"
     inkscape:zoom="11.2"
     inkscape:pageshadow="2"
     inkscape:pageopacity="0.0"
     borderopacity="1.0"
     bordercolor="#666666"
     pagecolor="#ffffff"
     id="base" />
  <metadata
     id="metadata5">
    <rdf:RDF>
      <cc:Work
         rdf:about="">
        <dc:format>image/svg+xml</dc:format>
        <dc:type
           rdf:resource="http://purl.org/dc/dcmitype/StillImage" />
        <dc:title></dc:title>
      </cc:Work>
    </rdf:RDF>
  </metadata>
  <g
     transform="translate(-87.55036,-134.67473)"
     id="layer1"
     inkscape:groupmode="layer"
     inkscape:label="Layer 1">
    <g
       transform="translate(-173.86905,-103.56548)"
       id="g855">
      <g
         style="fill:#ffffff"
         id="g880">
        <path
           id="path865"
           d="m 262.00852,241.79978 c 0,-0.3008 0.0699,-0.68183 0.15976,-0.94253 0.0399,-0.10027 0.0699,-0.19051 0.10984,-0.27072 0.14977,-0.30081 0.26959,-0.53143 0.50923,-0.7821 0.0399,-0.0401 0.0499,-0.0602 0.0899,-0.10027 0.0999,-0.10027 0.28957,-0.25068 0.3994,-0.33089 0.0799,-0.0602 0.14977,-0.10027 0.22965,-0.14038 0.84872,-0.5214 2.0569,-0.5214 2.90562,-0.01 0.19969,0.12033 0.36944,0.23062 0.53918,0.39105 0.0399,0.0401 0.0599,0.0501 0.0999,0.0902 0.0999,0.10027 0.23964,0.29078 0.3295,0.4111 0.14978,0.20054 0.27958,0.49132 0.36945,0.73197 0.20968,0.5615 0.20968,1.32355 0,1.89509 -0.0499,0.16043 -0.13979,0.37099 -0.21967,0.51137 -0.12981,0.20054 -0.22966,0.37099 -0.3994,0.54145 -0.0399,0.0401 -0.0399,0.0602 -0.0799,0.10027 l -0.18971,0.17046 c -0.15976,0.13035 -0.26959,0.20054 -0.43934,0.30081 -0.21967,0.13035 -0.53918,0.2607 -0.79879,0.31083 -0.70893,0.16043 -1.49774,0.0602 -2.10682,-0.30081 -0.20969,-0.12032 -0.36944,-0.23062 -0.53919,-0.40107 -0.0399,-0.0401 -0.0599,-0.0401 -0.0999,-0.0802 -0.0399,-0.0401 -0.0399,-0.0602 -0.0799,-0.10027 -0.2596,-0.27072 -0.34947,-0.45121 -0.51921,-0.7821 -0.16975,-0.33089 -0.2696,-0.83223 -0.2696,-1.21326 z m -0.58911,-0.12032 c 0,0.62167 0.0799,1.13304 0.32951,1.62436 0.10983,0.2206 0.31951,0.59159 0.49924,0.7821 0.0399,0.0501 0.0599,0.0802 0.0999,0.12033 0.37943,0.38102 0.5991,0.55148 1.10833,0.81218 0.87867,0.44118 2.12679,0.45121 2.99548,0.01 0.24962,-0.12032 0.46929,-0.24064 0.66899,-0.4111 0.34947,-0.28075 0.2596,-0.21057 0.54917,-0.5214 0.0399,-0.0401 0.0599,-0.0802 0.0999,-0.12032 0.16974,-0.21057 0.27957,-0.42113 0.39939,-0.67181 0.43934,-0.87234 0.44932,-2.1257 0.01,-3.00807 -0.40938,-0.82221 -0.89865,-1.3035 -1.71741,-1.72464 -0.86869,-0.44118 -2.1168,-0.44118 -2.99548,0 -0.81876,0.41111 -1.29804,0.8924 -1.7174,1.71461 -0.15976,0.33089 -0.32951,0.90242 -0.32951,1.39374 z"
           style="fill:#ffffff;fill-opacity:1;fill-rule:evenodd;stroke:none;stroke-width:0.264583" />
        <path
           id="path867"
           d="m 264.65453,240.36593 v 1.13305 h -1.1283 c -0.43933,0 -0.43933,0.60161 0,0.60161 h 1.1283 v 1.13304 c 0,0.45122 0.60908,0.45122 0.60908,0 v -1.13304 h 1.1283 c 0.44932,0 0.44932,-0.60161 0,-0.60161 h -1.1283 v -1.13305 c 0,-0.45121 -0.60908,-0.45121 -0.60908,0 z"
           style="fill:#ffffff;fill-opacity:1;fill-rule:evenodd;stroke:none;stroke-width:0.264583" />
      </g>
    </g>
  </g>
</svg>
